<svg width="32" height="32" viewBox="0 0 32 32" fill="none" xmlns="http://www.w3.org/2000/svg">
<rect x="0.5" y="0.5" width="31" height="31" rx="15.5" fill="#E8F6E5"></rect>
<rect x="0.5" y="0.5" width="31" height="31" rx="15.5" stroke="#356D29"></rect>
<path d="M19.5672 13.6828C19.6253 13.7409 19.6714 13.8098 19.7029 13.8857C19.7343 13.9615 19.7505 14.0429 19.7505 14.125C19.7505 14.2071 19.7343 14.2885 19.7029 14.3643C19.6714 14.4402 19.6253 14.5091 19.5672 14.5672L15.1922 18.9422C15.1341 19.0003 15.0652 19.0464 14.9893 19.0779C14.9135 19.1093 14.8321 19.1255 14.75 19.1255C14.6679 19.1255 14.5865 19.1093 14.5107 19.0779C14.4348 19.0464 14.3659 19.0003 14.3078 18.9422L12.4328 17.0672C12.3155 16.9499 12.2497 16.7909 12.2497 16.625C12.2497 16.4591 12.3155 16.3001 12.4328 16.1828C12.5501 16.0655 12.7092 15.9997 12.875 15.9997C13.0409 15.9997 13.1999 16.0655 13.3172 16.1828L14.75 17.6164L18.6828 13.6828C18.7409 13.6247 18.8098 13.5786 18.8857 13.5472C18.9615 13.5157 19.0429 13.4995 19.125 13.4995C19.2071 13.4995 19.2885 13.5157 19.3643 13.5472C19.4402 13.5786 19.5091 13.6247 19.5672 13.6828ZM24.125 16C24.125 17.607 23.6485 19.1779 22.7557 20.514C21.8629 21.8502 20.594 22.8916 19.1093 23.5065C17.6247 24.1215 15.991 24.2824 14.4149 23.9689C12.8388 23.6554 11.3911 22.8815 10.2548 21.7452C9.11846 20.6089 8.34463 19.1612 8.03112 17.5851C7.71762 16.009 7.87852 14.3753 8.49348 12.8907C9.10844 11.406 10.1498 10.1371 11.486 9.24431C12.8221 8.35152 14.393 7.875 16 7.875C18.1542 7.87727 20.2195 8.73403 21.7427 10.2573C23.266 11.7805 24.1227 13.8458 24.125 16ZM22.875 16C22.875 14.6403 22.4718 13.311 21.7164 12.1805C20.9609 11.0499 19.8872 10.1687 18.631 9.64833C17.3747 9.12798 15.9924 8.99183 14.6588 9.2571C13.3251 9.52237 12.1001 10.1772 11.1386 11.1386C10.1772 12.1001 9.52238 13.3251 9.2571 14.6588C8.99183 15.9924 9.12798 17.3747 9.64833 18.6309C10.1687 19.8872 11.0499 20.9609 12.1805 21.7164C13.311 22.4718 14.6403 22.875 16 22.875C17.8227 22.8729 19.5702 22.1479 20.8591 20.8591C22.1479 19.5702 22.8729 17.8227 22.875 16Z" fill="#356D29"></path>
</svg>