<svg width="33" height="32" viewBox="0 0 33 32" fill="none" xmlns="http://www.w3.org/2000/svg">
<rect x="0.769531" y="0.75" width="30.5" height="30.5" rx="15.25" fill="#FFF9E3"/>
<rect x="0.769531" y="0.75" width="30.5" height="30.5" rx="15.25" stroke="#483C10" stroke-width="1.5" stroke-dasharray="2 2"/>
<path d="M24.5204 20.6946L17.6883 8.82974C17.5176 8.53906 17.2739 8.29803 16.9813 8.13057C16.6887 7.9631 16.3575 7.875 16.0204 7.875C15.6833 7.875 15.352 7.9631 15.0594 8.13057C14.7669 8.29803 14.5231 8.53906 14.3524 8.82974L7.52037 20.6946C7.3561 20.9757 7.26953 21.2955 7.26953 21.6211C7.26953 21.9468 7.3561 22.2665 7.52037 22.5477C7.68891 22.8401 7.93222 23.0825 8.22534 23.2498C8.51846 23.4172 8.85083 23.5036 9.18834 23.5001H22.8524C23.1896 23.5033 23.5217 23.4168 23.8145 23.2494C24.1073 23.0821 24.3504 22.8399 24.5188 22.5477C24.6833 22.2667 24.7702 21.947 24.7704 21.6214C24.7707 21.2957 24.6844 20.9759 24.5204 20.6946ZM23.4368 21.9219C23.3772 22.0235 23.2917 22.1075 23.189 22.1651C23.0863 22.2228 22.9702 22.2521 22.8524 22.2501H9.18834C9.07059 22.2521 8.95441 22.2228 8.85172 22.1651C8.74903 22.1075 8.66352 22.0235 8.60396 21.9219C8.55001 21.8306 8.52155 21.7264 8.52155 21.6204C8.52155 21.5143 8.55001 21.4101 8.60396 21.3188L15.436 9.45396C15.4968 9.35284 15.5827 9.26917 15.6853 9.21108C15.788 9.153 15.904 9.12247 16.0219 9.12247C16.1399 9.12247 16.2559 9.153 16.3585 9.21108C16.4612 9.26917 16.5471 9.35284 16.6079 9.45396L23.4399 21.3188C23.4934 21.4104 23.5213 21.5147 23.5207 21.6208C23.5202 21.7269 23.4912 21.8309 23.4368 21.9219ZM15.3954 17.2501V14.1251C15.3954 13.9593 15.4612 13.8003 15.5784 13.6831C15.6956 13.5659 15.8546 13.5001 16.0204 13.5001C16.1861 13.5001 16.3451 13.5659 16.4623 13.6831C16.5795 13.8003 16.6454 13.9593 16.6454 14.1251V17.2501C16.6454 17.4158 16.5795 17.5748 16.4623 17.692C16.3451 17.8092 16.1861 17.8751 16.0204 17.8751C15.8546 17.8751 15.6956 17.8092 15.5784 17.692C15.4612 17.5748 15.3954 17.4158 15.3954 17.2501ZM16.9579 20.0626C16.9579 20.248 16.9029 20.4292 16.7999 20.5834C16.6969 20.7376 16.5504 20.8577 16.3791 20.9287C16.2078 20.9996 16.0193 21.0182 15.8375 20.982C15.6556 20.9459 15.4886 20.8566 15.3575 20.7255C15.2263 20.5944 15.1371 20.4273 15.1009 20.2454C15.0647 20.0636 15.0833 19.8751 15.1542 19.7038C15.2252 19.5325 15.3454 19.3861 15.4995 19.283C15.6537 19.18 15.8349 19.1251 16.0204 19.1251C16.269 19.1251 16.5075 19.2238 16.6833 19.3996C16.8591 19.5755 16.9579 19.8139 16.9579 20.0626Z" fill="#483C10"/>
<path d="M16.2367 31.2421C7.96436 31.5116 0.750205 24.5827 0.750205 16.0134C0.750205 7.44412 7.47429 0.752441 16.0436 0.752441" stroke="#483C10" stroke-width="1.5"/>
</svg>
