<svg width="20" height="20" viewBox="0 0 20 20" fill="none" xmlns="http://www.w3.org/2000/svg">
<rect width="20" height="20" rx="10" fill="#FFF9E3"></rect>
<path d="M7.5 15.5C7.5 15.6326 7.44732 15.7598 7.35355 15.8536C7.25979 15.9473 7.13261 16 7 16H6C5.73478 16 5.48043 15.8946 5.29289 15.7071C5.10536 15.5196 5 15.2652 5 15V13C5 12.8674 5.05268 12.7402 5.14645 12.6464C5.24021 12.5527 5.36739 12.5 5.5 12.5C5.63261 12.5 5.75979 12.5527 5.85355 12.6464C5.94732 12.7402 6 12.8674 6 13V15H7C7.13261 15 7.25979 15.0527 7.35355 15.1464C7.44732 15.2402 7.5 15.3674 7.5 15.5ZM16 7V10C16 10.1326 15.9473 10.2598 15.8536 10.3536C15.7598 10.4473 15.6326 10.5 15.5 10.5C15.3674 10.5 15.2402 10.4473 15.1464 10.3536C15.0527 10.2598 15 10.1326 15 10V7.5H12C11.8674 7.5 11.7402 7.44732 11.6464 7.35355C11.5527 7.25979 11.5 7.13261 11.5 7V4H10C9.86739 4 9.74021 3.94732 9.64645 3.85355C9.55268 3.75979 9.5 3.63261 9.5 3.5C9.5 3.36739 9.55268 3.24021 9.64645 3.14645C9.74021 3.05268 9.86739 3 10 3H12C12.0657 2.99995 12.1307 3.01284 12.1914 3.03793C12.2521 3.06303 12.3073 3.09983 12.3538 3.14625L15.8538 6.64625C15.9002 6.69272 15.937 6.74788 15.9621 6.80858C15.9872 6.86927 16.0001 6.93432 16 7ZM12.5 6.5H14.2931L12.5 4.70688V6.5ZM7.5 3H6C5.73478 3 5.48043 3.10536 5.29289 3.29289C5.10536 3.48043 5 3.73478 5 4V5.5C5 5.63261 5.05268 5.75979 5.14645 5.85355C5.24021 5.94732 5.36739 6 5.5 6C5.63261 6 5.75979 5.94732 5.85355 5.85355C5.94732 5.75979 6 5.63261 6 5.5V4H7.5C7.63261 4 7.75979 3.94732 7.85355 3.85355C7.94732 3.75979 8 3.63261 8 3.5C8 3.36739 7.94732 3.24021 7.85355 3.14645C7.75979 3.05268 7.63261 3 7.5 3ZM15.5 12C15.3674 12 15.2402 12.0527 15.1464 12.1464C15.0527 12.2402 15 12.3674 15 12.5V15H14.5C14.3674 15 14.2402 15.0527 14.1464 15.1464C14.0527 15.2402 14 15.3674 14 15.5C14 15.6326 14.0527 15.7598 14.1464 15.8536C14.2402 15.9473 14.3674 16 14.5 16H15C15.2652 16 15.5196 15.8946 15.7071 15.7071C15.8946 15.5196 16 15.2652 16 15V12.5C16 12.3674 15.9473 12.2402 15.8536 12.1464C15.7598 12.0527 15.6326 12 15.5 12ZM5.5 11C5.63261 11 5.75979 10.9473 5.85355 10.8536C5.94732 10.7598 6 10.6326 6 10.5V8C6 7.86739 5.94732 7.74021 5.85355 7.64645C5.75979 7.55268 5.63261 7.5 5.5 7.5C5.36739 7.5 5.24021 7.55268 5.14645 7.64645C5.05268 7.74021 5 7.86739 5 8V10.5C5 10.6326 5.05268 10.7598 5.14645 10.8536C5.24021 10.9473 5.36739 11 5.5 11ZM12 15H9.5C9.36739 15 9.24021 15.0527 9.14645 15.1464C9.05268 15.2402 9 15.3674 9 15.5C9 15.6326 9.05268 15.7598 9.14645 15.8536C9.24021 15.9473 9.36739 16 9.5 16H12C12.1326 16 12.2598 15.9473 12.3536 15.8536C12.4473 15.7598 12.5 15.6326 12.5 15.5C12.5 15.3674 12.4473 15.2402 12.3536 15.1464C12.2598 15.0527 12.1326 15 12 15Z" fill="#483C10"></path>
</svg>