<svg width="20" height="20" viewBox="0 0 20 20" fill="none" xmlns="http://www.w3.org/2000/svg">
<rect width="20" height="20" rx="10" fill="#E8F6E5"></rect>
<path d="M15.8 6.6L12.3333 3.13333C12.2667 3.06667 12.1333 3 12 3H6C5.46667 3 5 3.46667 5 4V15C5 15.5333 5.46667 16 6 16H15C15.5333 16 16 15.5333 16 15V7C16 6.86667 15.9333 6.73333 15.8 6.6ZM12.4667 4.66667L14.2667 6.46667H12.4667V4.66667ZM15 14.9333H5.93333V4H11.4V7C11.4 7.26667 11.6 7.53333 11.9333 7.53333H14.9333V14.9333H15ZM13.0667 9C13.2667 9.2 13.2667 9.53333 13.0667 9.73333L10.0667 12.7333C9.86667 12.9333 9.53333 12.9333 9.33333 12.7333L7.86667 11.2C7.66667 11 7.66667 10.6667 7.86667 10.4667C8.06667 10.2667 8.4 10.2667 8.6 10.4667L9.73333 11.6L12.4 8.93333C12.5333 8.8 12.8667 8.8 13.0667 9Z" fill="#356D29"></path>
</svg>