<svg width="16" height="16" viewBox="0 0 16 16" fill="none" xmlns="http://www.w3.org/2000/svg">
<path d="M13.8 4.6L10.3333 1.13333C10.2667 1.06667 10.1333 1 10 1H4C3.46667 1 3 1.46667 3 2V13C3 13.5333 3.46667 14 4 14H13C13.5333 14 14 13.5333 14 13V5C14 4.86667 13.9333 4.73333 13.8 4.6ZM10.4667 2.66667L12.2667 4.46667H10.4667V2.66667ZM13 12.9333H3.93333V2H9.4V5C9.4 5.26667 9.6 5.53333 9.93333 5.53333H12.9333V12.9333H13ZM11.0667 7C11.2667 7.2 11.2667 7.53333 11.0667 7.73333L8.06667 10.7333C7.86667 10.9333 7.53333 10.9333 7.33333 10.7333L5.86667 9.2C5.66667 9 5.66667 8.66667 5.86667 8.46667C6.06667 8.26667 6.4 8.26667 6.6 8.46667L7.73333 9.6L10.4 6.93333C10.5333 6.8 10.8667 6.8 11.0667 7Z" fill="#356D29"/>
</svg>
